
        <svg xmlns="http://www.w3.org/2000/svg" xmlns:xlink="http://www.w3.org/1999/xlink" version="1.1" width="3176.470588235294" 
        height="1940.1118103164022" viewBox="0 0 3176.470588235294 1940.1118103164022">
			<rect fill="#ffffff" width="3176.470588235294" height="1940.1118103164022"/>
			<g transform="scale(8.823529411764707) translate(10, 10)">
				<defs id="SvgjsDefs1048"></defs><g id="SvgjsG1049" featureKey="JQyOZB-0" transform="matrix(1.521661641248338,0,0,1.521661641248338,94.41664656886314,-23.857648031556124)" fill="#000000"><path xmlns="http://www.w3.org/2000/svg" d="M45.911,57.706c-1.646,0.167-3.204,0.055-4.66-0.988c-1.534-1.1-3.25-1.94-4.835-2.974c-0.812-0.53-1.544-1.198-2.254-1.867  c-1.291-1.217-2.838-1.636-4.56-1.868c-1.013-0.137-2.051-0.673-2.9-1.28c-0.97-0.694-0.889-1.518-0.044-2.369  c0.802-0.808,0.794-1.492-0.291-1.856c-1.79-0.601-3.652-1.131-5.52-1.309c-1.585-0.151-2.983-0.454-4.446-1.153  c-2.692-1.285-5.548-2.224-8.429-3.055c2.277,0.957,4.553,1.914,6.955,2.923c-2.072,1.106-4.259,0.899-6.601,0.921  c0.266-0.401,0.419-0.633,0.573-0.863c0.214-0.094,0.641-0.387,1.032-0.34c-0.818-0.69-2.112-1.175-2.812-1.766  c-0.109,0.109,0.047,0.328,0.172,0.469c0.234,0.297,1.281,1.246,1.891,1.859c-0.847-0.531-2.092-1.187-2.805-1.86  c-1.23-1.162-0.872-2.816,0.725-3.339c1.191-0.39,2.005-1.098,2.751-2.049c1.106-1.409,2.73-2.013,4.418-2.167  c7.469-0.68,14.941-1.36,22.424-1.833c2.79-0.176,5.619,0.171,8.424,0.366c0.998,0.069,1.573-0.303,1.898-1.168  c0.302-0.804,0.567-1.622,0.834-2.438c1.32-4.037,3.436-7.607,6.334-10.707c0.421-0.451,0.919-0.86,1.451-1.166  c0.286-0.165,0.821-0.213,1.062-0.048c0.224,0.152,0.35,0.694,0.273,1.003c-0.76,3.055-0.931,6.168-0.991,9.293  c-0.013,0.661-0.103,1.369,0.091,1.975c0.509,1.591,1.117,3.154,1.773,4.691c0.169,0.397,0.607,0.844,1.008,0.954  c10.202,2.8,17.183,9.366,21.942,18.591c2.166,4.198,3.569,8.665,4.802,13.192c0.249,0.914,0.588,1.039,1.509,1.05  c1.688,0.021,3.386,0.313,5.048,0.648c1.592,0.543,2.092,1.74,2.186,2.199c0.148,0.722-0.5,0.062-2.007,0.919  c-1.578,0.678-2.633,1.717-3.254,3.54c-0.383,1.124-1.203,2.278-1.755,3.465c-0.202,0.435-0.661,0.764-1.039,1.101  c-1.591,1.416-2.295,3.198-2.251,5.305c0.003,0.142-0.07,0.285-0.422,0.613c-0.413-0.591-0.933-1.135-1.219-1.782  c-1.029-2.321-0.459-4.756-0.375-7.15c0.025-0.699,0.258-1.391,0.273-2.088c0.038-1.774-0.39-3.269-1.912-4.512  c-2.626-2.144-5.039-4.546-7.589-6.786c-1.222-1.074-2.545-2.036-3.837-3.03c-0.396-0.305-0.938-0.356-0.744-1.178  c0.09-0.38-0.551-0.974-0.929-1.412c-0.621-0.72-0.867-1.45-0.391-2.351c0.478-0.902,1.27-0.808,2.045-0.663  c1.574,0.295,3.141,0.631,4.705,0.975c1.057,0.232,1.969,0.032,2.569-0.906c0.618-0.966-0.024-1.741-0.581-2.425  c-1.765-2.165-4.052-3.593-6.859-3.471c-2.141,0.093-4.316,0.605-6.359,1.285c-1.085,0.361-2.012,1.389-2.848,2.269  c-1.459,1.536-3.234,2.04-5.217,1.746c-3.243-0.48-6.467-1.096-9.7-1.645c-0.412-0.07-0.833-0.084-1.268-0.126  c0.173,2.094,1.391,3.921,3.807,4.296C48.203,55.722,48.036,57.326,45.911,57.706z M23.958,40.817  c1.052,0.045,2.749-0.678,3.991-1.114c0.602-0.211,1.181-0.631,1.634-1.09c1.161-1.175,0.969-2.033-0.551-2.627  c-1.625-0.635-3.249-0.673-4.895,0.027c-1.612,0.685-3.272,1.258-4.895,1.917c-0.285,0.116-0.495,0.418-0.74,0.634  c-0.132,0.173,0.392,0.615,0.662,0.709C20.774,39.831,22.823,40.815,23.958,40.817z M73.566,45.267  c-2.022-2.684-4.83-3.813-7.887-4.41C68.274,42.309,70.62,42.972,73.566,45.267z M30.338,47.722c0,0-1.406,0.073-1.609,0.323  c-0.531,0.75,3.469,0.688,5.684,2.551c0.311,0.272,1.035,0.541,1.082,0.48c-1.075-0.82-2.88-2.009-4.125-2.958  c-0.208-0.292,0.437-0.457,0.647-0.492c0.213-0.035,0.429-0.046,0.644-0.068c0.255,0.003,0.61,0.024,0.604-0.023  C30.911,46.951,30.599,47.388,30.338,47.722z M49.698,26.237c0.062-0.328,0.772-2.515,0.672-2.547  c-0.531,1.281-1.938,3.719-2.651,6.853c0.17,0.066,0.166,1.069,0.635,1.163C49.031,29.757,49.26,28.222,49.698,26.237z   M22.417,54.144c0.664,1.537,1.306,3.106,2.187,4.518c0.53,0.85,1.405,1.612,2.302,2.06c0.601,0.3,1.638,0.212,2.253-0.121  c0.803-0.435,0.454-1.358,0.249-2.131c-0.317-1.199-0.632-2.405-0.819-3.628c-0.062-0.403,0.273-0.866,0.395-1.213  c-2.866-0.831-5.927-1.719-8.987-2.606C21.769,51.298,21.871,52.879,22.417,54.144z"></path></g><g id="SvgjsG1050" featureKey="SbCDzn-0" transform="matrix(3.866271680307438,0,0,3.866271680307438,-6.1860324761935,101.4982981569212)" fill="#000000"><path d="M10.9 20 q-1.34 -2.38 -2.9 -4.7 t-3.32 -4.38 l0 9.08 l-3.08 0 l0 -13.86 l2.54 0 q0.66 0.66 1.46 1.62 t1.63 2.05 t1.65 2.26 t1.54 2.25 l0 -8.18 l3.1 0 l0 13.86 l-2.62 0 z M19.34 13.059999999999999 q0 1.02 0.25 1.84 t0.72 1.41 t1.15 0.91 t1.56 0.32 q0.86 0 1.55 -0.32 t1.16 -0.91 t0.72 -1.41 t0.25 -1.84 t-0.25 -1.85 t-0.72 -1.42 t-1.16 -0.91 t-1.55 -0.32 q-0.88 0 -1.56 0.33 t-1.15 0.92 t-0.72 1.42 t-0.25 1.83 z M29.92 13.059999999999999 q0 1.78 -0.53 3.13 t-1.45 2.26 t-2.19 1.37 t-2.73 0.46 q-1.42 0 -2.68 -0.46 t-2.2 -1.37 t-1.48 -2.26 t-0.54 -3.13 t0.56 -3.13 t1.51 -2.27 t2.2 -1.38 t2.63 -0.46 q1.42 0 2.68 0.46 t2.2 1.38 t1.48 2.27 t0.54 3.13 z M32.52 20 l0 -13.86 l9.36 0 l0 2.62 l-6.24 0 l0 2.72 l5.54 0 l0 2.56 l-5.54 0 l0 3.34 l6.7 0 l0 2.62 l-9.82 0 z M54.92000000000001 6.140000000000001 l0 2.66 l-4.18 0 l0 11.2 l-3.12 0 l0 -11.2 l-4.18 0 l0 -2.66 l11.48 0 z M56.92000000000001 6.140000000000001 l3.12 0 l0 13.86 l-3.12 0 l0 -13.86 z M71.42 20 q-0.42 -0.68 -0.99 -1.47 t-1.24 -1.58 t-1.39 -1.52 t-1.44 -1.29 l0 5.86 l-3.12 0 l0 -13.86 l3.12 0 l0 5.24 q1.22 -1.28 2.45 -2.67 t2.29 -2.57 l3.7 0 q-1.42 1.68 -2.85 3.24 t-3.01 3.14 q1.66 1.38 3.21 3.28 t2.97 4.2 l-3.7 0 z M86.2 20 q-0.22 -0.72 -0.49 -1.48 t-0.53 -1.52 l-5.4 0 q-0.26 0.76 -0.53 1.52 t-0.49 1.48 l-3.24 0 q0.78 -2.24 1.48 -4.14 t1.37 -3.58 t1.32 -3.19 t1.35 -2.95 l2.98 0 q0.68 1.44 1.34 2.95 t1.33 3.19 t1.37 3.58 t1.48 4.14 l-3.34 0 z M82.46000000000001 9.28 q-0.1 0.3 -0.3 0.82 t-0.46 1.2 t-0.57 1.5 t-0.63 1.72 l3.94 0 q-0.32 -0.9 -0.62 -1.72 t-0.57 -1.5 t-0.47 -1.2 t-0.32 -0.82 z"></path></g><g id="SvgjsG1051" featureKey="m0CQaI-0" transform="matrix(0.6812369101884933,0,0,0.6812369101884933,60.755856607852344,186.12154783892987)" fill="#000000"><path d="M11.465 5.888999999999999 l2.9199 0 l0 14.111 l-3.3887 0 l-6.25 -10.088 l0 10.088 l-2.9199 0 l0 -14.111 l3.3496 0 l6.2891 10.029 l0 -10.029 z M28.828153125 20.19531 c-4.1504 0 -7.2168 -2.832 -7.2168 -7.2559 c0 -4.4336 3.0664 -7.2461 7.2168 -7.2461 c4.1406 0 7.207 2.8125 7.207 7.2461 c0 4.4238 -3.0664 7.2559 -7.207 7.2559 z M28.828153125 17.5098 c2.4316 0 4.2969 -1.709 4.2969 -4.5703 c0 -2.8516 -1.8652 -4.5508 -4.2969 -4.5508 s-4.2969 1.6992 -4.2969 4.5508 c0 2.8613 1.8652 4.5703 4.2969 4.5703 z M51.4553125 8.467 l-5.2344 0 l0 3.2031 l4.6387 0 l0 2.5488 l-4.6387 0 l0 3.1934 l5.2344 0 l0 2.5879 l-8.1836 0 l0 -14.111 l8.1836 0 l0 2.5781 z M67.1975 5.888999999999999 l0 2.5781 l-3.3496 0 l0 11.533 l-2.9004 0 l0 -11.533 l-3.3691 0 l0 -2.5781 l9.6191 0 z M73.95510625 20 l0 -14.111 l2.9297 0 l0 14.111 l-2.9297 0 z M91.3183875 20.19531 c-4.1504 0 -7.2168 -2.8223 -7.2168 -7.2559 s3.0664 -7.2461 7.2168 -7.2461 c3.1445 0 5.6641 1.6113 6.6699 4.2871 l-2.7344 0.99609 c-0.625 -1.6406 -2.1191 -2.5879 -3.9355 -2.5879 c-2.4316 0 -4.2969 1.6992 -4.2969 4.5508 s1.8652 4.5605 4.2969 4.5605 c1.8164 0 3.3105 -0.95703 3.9355 -2.5977 l2.7344 0.99609 c-1.0059 2.6758 -3.5254 4.2969 -6.6699 4.2969 z M122.851796875 5.888999999999999 l0 2.5781 l-3.3496 0 l0 11.533 l-2.9004 0 l0 -11.533 l-3.3691 0 l0 -2.5781 l9.6191 0 z M137.793203125 8.467 l-5.2344 0 l0 3.2031 l4.6387 0 l0 2.5488 l-4.6387 0 l0 3.1934 l5.2344 0 l0 2.5879 l-8.1836 0 l0 -14.111 l8.1836 0 l0 2.5781 z M151.601590625 20.19531 c-4.1504 0 -7.2168 -2.8223 -7.2168 -7.2559 s3.0664 -7.2461 7.2168 -7.2461 c3.1445 0 5.6641 1.6113 6.6699 4.2871 l-2.7344 0.99609 c-0.625 -1.6406 -2.1191 -2.5879 -3.9355 -2.5879 c-2.4316 0 -4.2969 1.6992 -4.2969 4.5508 s1.8652 4.5605 4.2969 4.5605 c1.8164 0 3.3105 -0.95703 3.9355 -2.5977 l2.7344 0.99609 c-1.0059 2.6758 -3.5254 4.2969 -6.6699 4.2969 z M174.111671875 5.888999999999999 l2.9297 0 l0 14.111 l-2.9297 0 l0 -5.8008 l-5.9668 0 l0 5.8008 l-2.9297 0 l0 -14.111 l2.9297 0 l0 5.7617 l5.9668 0 l0 -5.7617 z M194.873203125 5.888999999999999 l2.9199 0 l0 14.111 l-3.3887 0 l-6.25 -10.088 l0 10.088 l-2.9199 0 l0 -14.111 l3.3496 0 l6.2891 10.029 l0 -10.029 z M212.23635625 20.19531 c-4.1504 0 -7.2168 -2.832 -7.2168 -7.2559 c0 -4.4336 3.0664 -7.2461 7.2168 -7.2461 c4.1406 0 7.207 2.8125 7.207 7.2461 c0 4.4238 -3.0664 7.2559 -7.207 7.2559 z M212.23635625 17.5098 c2.4316 0 4.2969 -1.709 4.2969 -4.5703 c0 -2.8516 -1.8652 -4.5508 -4.2969 -4.5508 s-4.2969 1.6992 -4.2969 4.5508 c0 2.8613 1.8652 4.5703 4.2969 4.5703 z M229.609415625 17.4121 l4.4238 0 l0 2.5879 l-7.3535 0 l0 -14.111 l2.9297 0 l0 11.523 z M247.060575 20.19531 c-4.1504 0 -7.2168 -2.832 -7.2168 -7.2559 c0 -4.4336 3.0664 -7.2461 7.2168 -7.2461 c4.1406 0 7.207 2.8125 7.207 7.2461 c0 4.4238 -3.0664 7.2559 -7.207 7.2559 z M247.060575 17.5098 c2.4316 0 4.2969 -1.709 4.2969 -4.5703 c0 -2.8516 -1.8652 -4.5508 -4.2969 -4.5508 s-4.2969 1.6992 -4.2969 4.5508 c0 2.8613 1.8652 4.5703 4.2969 4.5703 z M267.607434375 20.19531 c-4.0723 0 -7.0703 -2.8125 -7.0703 -7.2168 c0 -4.4629 3.0664 -7.2852 7.2168 -7.2852 c2.7246 0 4.9805 1.2012 6.2109 3.3203 l-2.5684 1.3672 c-0.74219 -1.4453 -2.0703 -2.1387 -3.6426 -2.1387 c-2.4414 0 -4.2773 1.6797 -4.2773 4.668 c0 2.8809 1.7188 4.7363 4.3848 4.7363 c1.8066 0 3.4668 -0.89844 3.8672 -2.959 l-3.8574 0 l0 -2.3535 l6.6309 0 l0 7.666 l-2.3047 0 l0 -1.9531 c-0.9082 1.3379 -2.4316 2.1484 -4.5898 2.1484 z M282.08010625 20 l0 -14.111 l2.9297 0 l0 14.111 l-2.9297 0 z M301.3771875 8.467 l-5.2344 0 l0 3.2031 l4.6387 0 l0 2.5488 l-4.6387 0 l0 3.1934 l5.2344 0 l0 2.5879 l-8.1836 0 l0 -14.111 l8.1836 0 l0 2.5781 z M313.623075 20.19531 c-3.0273 0 -5.3906 -1.4551 -5.8203 -4.1016 l3.0273 -0.69336 c0.19531 1.582 1.3574 2.4023 2.9102 2.4023 c1.1914 0 2.1387 -0.52734 2.1289 -1.7188 c-0.0097656 -1.3281 -1.5723 -1.748 -3.291 -2.2754 c-2.0703 -0.64453 -4.2871 -1.4063 -4.2871 -4.0039 c0 -2.627 2.1484 -4.1113 4.9805 -4.1113 c2.4805 0 4.9805 1.0059 5.5469 3.7109 l-2.832 0.70313 c-0.26367 -1.4063 -1.2109 -2.0215 -2.5391 -2.0215 c-1.1816 0 -2.1875 0.48828 -2.1875 1.6504 c0 1.084 1.3867 1.4453 2.9883 1.9238 c2.1289 0.64453 4.6484 1.4648 4.6484 4.2773 c0 2.998 -2.5098 4.2578 -5.2734 4.2578 z"></path></g>
			</g>
		</svg>
	